<?xml version="1.0" encoding="utf-8"?>
<!-- Generator: Adobe Illustrator 16.0.0, SVG Export Plug-In . SVG Version: 6.00 Build 0)  -->
<!DOCTYPE svg PUBLIC "-//W3C//DTD SVG 1.1//EN" "http://www.w3.org/Graphics/SVG/1.1/DTD/svg11.dtd">
<svg version="1.1" id="Layer_1" xmlns="http://www.w3.org/2000/svg" xmlns:xlink="http://www.w3.org/1999/xlink" x="0px" y="0px"
	 width="169px" height="60px" viewBox="0 0 169 60" enable-background="new 0 0 169 60" xml:space="preserve">
<g>
	<path fill="#131533" d="M15.016,44.617c0-12.688,0-12.688,0-12.688c0-1.114-0.256-1.886-0.6-2.487
		c-0.344-0.514-0.944-0.771-1.8-0.771c-0.343,0-0.687,0.086-1.03,0.172c-0.341,0-0.771,0.171-1.114,0.344
		c-0.43,0.085-0.771,0.255-1.115,0.513c-0.427,0.173-0.771,0.344-1.029,0.602c0,14.316,0,14.316,0,14.316c-5.4,0-5.4,0-5.4,0
		c0-18.861,0-18.861,0-18.861c4.802,0,4.802,0,4.802,0c0.513,2.144,0.513,2.144,0.513,2.144l0,0
		c0.428-0.172,0.857-0.515,1.371-0.771c0.516-0.258,1.114-0.601,1.715-0.858c0.6-0.256,1.2-0.515,1.886-0.686
		c0.686-0.172,1.287-0.258,1.973-0.258c0.686,0,1.371,0.086,1.972,0.344c0.599,0.257,1.2,0.6,1.628,1.028
		c0.516,0.515,0.857,1.028,1.114,1.8c0.343,0.688,0.43,1.458,0.43,2.401c0,13.717,0,13.717,0,13.717H15.016z"/>
	<path fill="#131533" d="M41.935,41.873c0.514,0,1.116-0.171,1.888-0.343c0,1.287,0,1.287,0,1.287
		c-0.258,0.256-0.603,0.515-1.03,0.771c-0.344,0.257-0.771,0.513-1.201,0.686c-0.429,0.17-0.943,0.343-1.371,0.429
		c-0.514,0.171-0.943,0.171-1.372,0.171c-0.514,0-0.944-0.086-1.287-0.171c-0.343-0.172-0.599-0.343-0.857-0.602
		c-0.256-0.172-0.515-0.427-0.686-0.686c-0.171-0.343-0.343-0.599-0.43-0.857c-0.427,0.343-0.941,0.602-1.371,0.944
		c-0.427,0.256-0.857,0.515-1.372,0.771c-0.428,0.17-0.941,0.343-1.542,0.514c-0.514,0.17-1.116,0.258-1.714,0.258
		c-1.542,0-2.658-0.515-3.515-1.371c-0.858-0.944-1.287-2.315-1.287-4.201c0-1.03,0.171-1.886,0.429-2.572
		c0.257-0.771,0.6-1.371,1.201-1.886c0.514-0.429,1.286-0.772,2.143-1.029c0.942-0.256,1.973-0.429,3.258-0.515
		c3.257-0.086,3.257-0.086,3.257-0.086c0-2.742,0-2.742,0-2.742c0-0.687-0.171-1.287-0.599-1.63
		c-0.343-0.343-1.028-0.515-2.058-0.515c-0.687,0-1.457,0.087-2.314,0.258s-1.801,0.43-2.83,0.772
		c-0.686-1.887-0.686-1.887-0.686-1.887c0.598-0.343,1.287-0.6,1.971-0.857c0.771-0.257,1.457-0.515,2.143-0.771
		c0.772-0.173,1.545-0.344,2.231-0.515c0.77-0.087,1.542-0.173,2.228-0.173c0.857,0,1.63,0.086,2.315,0.258
		c0.599,0.171,1.2,0.43,1.627,0.771c0.43,0.343,0.773,0.857,1.03,1.458c0.173,0.6,0.343,1.372,0.343,2.314c0,8.659,0,8.659,0,8.659
		C40.478,40.845,40.992,41.873,41.935,41.873L41.935,41.873z M35.334,40.929c-0.085-0.084-0.085-0.255-0.085-0.598
		s-0.086-0.773-0.086-1.286c0-0.516,0-1.114,0-1.801c0-0.685,0-1.373,0-2.059c-1.371,0-2.315,0.087-3.001,0.172
		c-0.686,0.173-1.115,0.343-1.285,0.601c-0.086,0.085-0.086,0.258-0.173,0.428c-0.084,0.259-0.084,0.516-0.084,0.772
		c-0.085,0.256-0.085,0.6-0.085,0.858c0,0.342,0,0.6,0,0.855c0,0.858,0.085,1.544,0.343,2.057c0.257,0.516,0.6,0.773,1.114,0.773
		c0.602,0,1.2-0.085,1.714-0.172C34.219,41.359,34.82,41.188,35.334,40.929L35.334,40.929z"/>
	<path fill="#131533" d="M43.648,26.015c0.259-0.087,0.516-0.087,0.858-0.173c0.344-0.086,0.686-0.086,1.114-0.171
		c0.343,0,0.773-0.086,1.114-0.086c0.344-0.085,0.687-0.085,1.03-0.085c0.6,0,1.2,0.085,1.63,0.256
		c0.514,0.086,0.855,0.344,1.198,0.772c0.344,0.428,0.687,1.114,1.114,2.058c0.43,1.028,0.859,2.143,1.287,3.429
		c0.43,1.286,0.857,2.572,1.371,4.028c0.43,1.371,0.773,2.745,1.2,4.03l0,0c0.686-1.285,1.287-2.485,1.715-3.514
		c0.428-1.029,0.771-1.973,0.943-2.829c0.258-0.86,0.343-1.716,0.43-2.573c0.084-0.856,0.084-1.716,0.084-2.658
		c0-0.428,0-0.941-0.084-1.456c-0.087-0.515-0.087-0.857-0.171-1.028c4.029-0.602,4.029-0.602,4.029-0.602
		c0.171,0.258,0.171,0.515,0.256,0.943c0.087,0.429,0.087,0.772,0.087,1.201c0,1.542-0.171,3.001-0.601,4.543
		c-0.427,1.457-0.941,2.915-1.628,4.372c-0.686,1.458-1.373,2.83-2.228,4.201c-0.773,1.371-1.63,2.742-2.401,3.943
		c-4.372,0-4.372,0-4.372,0c-0.514-1.716-1.116-3.516-1.714-5.23c-0.514-1.799-1.116-3.344-1.716-4.887
		c-0.514-1.455-1.03-2.742-1.544-3.771c-0.514-1.114-0.857-1.801-1.2-2.229c-0.427-0.514-0.943-0.771-1.542-0.771
		c-0.259,0-0.259,0-0.259,0V26.015z"/>
	<path fill-rule="evenodd" clip-rule="evenodd" fill="#2BABD0" d="M88.487,2.181l-24.09,42.865l-2.315-2.83L84.201,2.181H88.487
		L88.487,2.181z M103.746,29.271l-3.857,6.771h-3.001v-0.085l3.773-6.687H103.746L103.746,29.271z"/>
	<path fill-rule="evenodd" clip-rule="evenodd" fill="#457394" d="M64.397,45.046l24.09-42.865h0.084l8.145,14.488l-3.942,6.944
		l-4.202-7.459l-1.542,2.572L72.284,45.046H64.397L64.397,45.046z M104.776,45.046l-4.888-9.003l0,0l3.857-6.771v-0.085l4.803,9.257
		L104.776,45.046L104.776,45.046z"/>
	<path fill-rule="evenodd" clip-rule="evenodd" fill="#365974" d="M87.029,18.727l1.542-2.572l4.202,7.459l-3.428-0.857
		L87.029,18.727L87.029,18.727z M104.776,45.046h-2.83l-5.059-9.003h3.001l0,0L104.776,45.046L104.776,45.046z"/>
	
		<line fill="none" stroke="#EC2D2A" stroke-width="0" stroke-linecap="round" stroke-linejoin="round" stroke-miterlimit="10" x1="98.518" y1="14.269" x2="98.518" y2="14.269"/>
	<polygon fill-rule="evenodd" clip-rule="evenodd" fill="#793719" points="100.316,16.154 99.117,16.154 97.145,14.526 
		98.26,14.611 100.316,16.154 	"/>
	<polygon fill-rule="evenodd" clip-rule="evenodd" fill="#F69924" points="79.227,37.588 88.231,37.588 88.231,37.588 
		100.316,16.154 98.26,14.611 109.148,7.153 109.148,7.153 107.69,22.069 105.718,20.441 91.744,45.131 74.942,45.131 
		79.227,37.588 79.227,37.588 	"/>
	<path fill-rule="evenodd" clip-rule="evenodd" fill="#C95928" d="M79.227,37.588L79.227,37.588l-4.285,7.543l-0.773-0.6l4.288-7.63
		L79.227,37.588L79.227,37.588z M87.459,36.901l11.658-20.747h1.199L88.231,37.588L87.459,36.901L87.459,36.901z"/>
	<path fill-rule="evenodd" clip-rule="evenodd" fill="#FAC732" d="M98.26,14.611l-1.115-0.085l10.889-7.46l1.115,0.087L98.26,14.611
		L98.26,14.611z M88.231,37.588L88.231,37.588h-9.004l-0.77-0.687h9.001L88.231,37.588L88.231,37.588z"/>
	<path fill="#131533" d="M113.776,25.756c5.316,0,5.316,0,5.316,0c0,18.174,0,18.174,0,18.174c0,1.63-0.085,3.174-0.345,4.544
		c-0.256,1.373-0.597,2.572-1.114,3.688c-0.514,1.113-1.114,2.142-1.97,3.086c-0.773,0.943-1.629,1.799-2.745,2.571
		c-1.542-1.371-1.542-1.371-1.542-1.371c0.513-0.602,0.943-1.285,1.201-1.973c0.341-0.686,0.513-1.371,0.684-2.229
		c0.175-0.772,0.345-1.714,0.345-2.658c0.086-0.942,0.17-2.057,0.17-3.256V25.756z M116.35,15.04
		c3.343,3.515,3.343,3.515,3.343,3.515c-3.343,3.515-3.343,3.515-3.343,3.515c-3.431-3.515-3.431-3.515-3.431-3.515L116.35,15.04z"
		/>
	<path fill="#131533" d="M137.183,44.617c0-12.688,0-12.688,0-12.688c0-1.114-0.172-1.886-0.515-2.487
		c-0.343-0.514-0.943-0.771-1.801-0.771c-0.343,0-0.686,0.086-1.028,0.172c-0.43,0-0.772,0.171-1.201,0.344
		c-0.342,0.085-0.688,0.255-1.114,0.513c-0.343,0.173-0.686,0.344-1.027,0.602c0,14.316,0,14.316,0,14.316c-5.317,0-5.317,0-5.317,0
		c0-18.861,0-18.861,0-18.861c4.802,0,4.802,0,4.802,0c0.428,2.144,0.428,2.144,0.428,2.144c0.088,0,0.088,0,0.088,0
		c0.342-0.172,0.855-0.515,1.37-0.771c0.514-0.258,1.028-0.601,1.716-0.858c0.6-0.256,1.201-0.515,1.887-0.686
		c0.599-0.172,1.285-0.258,1.885-0.258c0.771,0,1.372,0.086,2.058,0.344c0.601,0.257,1.113,0.6,1.629,1.028
		c0.428,0.515,0.856,1.028,1.113,1.8c0.259,0.688,0.43,1.458,0.43,2.401c0,13.717,0,13.717,0,13.717H137.183z"/>
	<path fill="#131533" d="M164.186,41.873c0.43,0,1.115-0.171,1.887-0.343c0,1.287,0,1.287,0,1.287
		c-0.342,0.256-0.6,0.515-1.028,0.771s-0.771,0.513-1.198,0.686c-0.518,0.17-0.944,0.343-1.374,0.429
		c-0.515,0.171-0.941,0.171-1.459,0.171c-0.427,0-0.854-0.086-1.198-0.171c-0.344-0.172-0.684-0.343-0.944-0.602
		c-0.255-0.172-0.428-0.427-0.6-0.686c-0.171-0.343-0.341-0.599-0.514-0.857c-0.431,0.343-0.857,0.602-1.287,0.944
		c-0.428,0.256-0.941,0.515-1.368,0.771c-0.518,0.17-1.028,0.343-1.544,0.514c-0.517,0.17-1.114,0.258-1.802,0.258
		c-1.457,0-2.572-0.515-3.43-1.371c-0.856-0.944-1.284-2.315-1.284-4.201c0-1.03,0.085-1.886,0.344-2.572
		c0.255-0.771,0.686-1.371,1.285-1.886c0.513-0.429,1.285-0.772,2.143-1.029c0.856-0.256,1.971-0.429,3.26-0.515
		c3.253-0.086,3.253-0.086,3.253-0.086c0-2.742,0-2.742,0-2.742c0-0.687-0.255-1.287-0.599-1.63
		c-0.427-0.343-1.113-0.515-2.057-0.515c-0.687,0-1.458,0.087-2.315,0.258c-0.94,0.171-1.885,0.43-2.826,0.772
		c-0.774-1.887-0.774-1.887-0.774-1.887c0.685-0.343,1.373-0.6,2.059-0.857c0.686-0.257,1.455-0.515,2.144-0.771
		c0.77-0.173,1.456-0.344,2.229-0.515c0.771-0.087,1.457-0.173,2.229-0.173c0.856,0,1.544,0.086,2.229,0.258
		c0.684,0.171,1.199,0.43,1.628,0.771c0.516,0.343,0.857,0.857,1.031,1.458c0.256,0.6,0.342,1.372,0.342,2.314
		c0,8.659,0,8.659,0,8.659C162.645,40.845,163.157,41.873,164.186,41.873L164.186,41.873z M157.501,40.929c0-0.084,0-0.255,0-0.598
		c-0.087-0.343-0.087-0.773-0.087-1.286c0-0.516-0.088-1.114-0.088-1.801c0-0.685,0-1.373,0-2.059c-1.284,0-2.313,0.087-2.998,0.172
		c-0.602,0.173-1.031,0.343-1.199,0.601c-0.088,0.085-0.172,0.258-0.172,0.428c-0.087,0.259-0.087,0.516-0.173,0.772
		c0,0.256,0,0.6,0,0.858c-0.084,0.342-0.084,0.6-0.084,0.855c0,0.858,0.17,1.544,0.341,2.057c0.256,0.516,0.686,0.773,1.2,0.773
		c0.602,0,1.115-0.085,1.716-0.172C156.47,41.359,156.985,41.188,157.501,40.929L157.501,40.929z"/>
	<g>
		<path fill="#030303" d="M14.678,50.95c1.59,0,1.59,0,1.59,0c0.563,0,1.029,0.187,1.31,0.561s0.468,0.843,0.468,1.404
			c0,0.372-0.092,0.841-0.279,1.123c-0.283,0.654-0.75,0.937-1.499,0.937c-1.59,0-1.59,0-1.59,0V50.95z M16.175,54.505
			c0.187,0,0.374,0,0.468,0c0.189-0.092,0.375-0.278,0.563-0.467c0.092-0.188,0.186-0.377,0.186-0.656
			c0-0.095,0.093-0.28,0.093-0.374c0-0.561-0.093-0.935-0.374-1.216c-0.187-0.281-0.468-0.376-0.936-0.376c-0.936,0-0.936,0-0.936,0
			c0,3.089,0,3.089,0,3.089H16.175z"/>
		<path fill="#030303" d="M19.825,50.95h0.562v0.561h-0.562V50.95L19.825,50.95z M19.825,52.073h0.562v2.901h-0.562V52.073
			L19.825,52.073z"/>
		<path fill="#030303" d="M22.258,51.978c0.47,0,0.47,0,0.47,0c0,0.562,0,0.562,0,0.562c0.091-0.092,0.187-0.186,0.279-0.375
			c0.187-0.187,0.376-0.187,0.562-0.187c0,0,0,0,0.095,0c0,0,0,0,0.094,0c0,0.562,0,0.562,0,0.562c0-0.092-0.094-0.092-0.094-0.092
			h-0.095c-0.279,0-0.466,0.092-0.562,0.28c-0.188,0.188-0.188,0.374-0.188,0.56c0,1.688,0,1.688,0,1.688c-0.561,0-0.561,0-0.561,0
			V51.978z"/>
		<path fill="#030303" d="M27.126,52.073c0.279,0.091,0.374,0.28,0.468,0.374c0.093,0.187,0.185,0.374,0.185,0.561
			c0.095,0.188,0.095,0.374,0.095,0.653c-2.154,0-2.154,0-2.154,0c0,0.283,0.095,0.565,0.187,0.752
			c0.096,0.188,0.375,0.279,0.657,0.279c0.186,0,0.467-0.092,0.562-0.279c0.092-0.095,0.187-0.187,0.187-0.375
			c0.466,0,0.466,0,0.466,0c0,0.188,0,0.28-0.092,0.375c-0.093,0.188-0.188,0.279-0.282,0.373c-0.092,0.094-0.279,0.188-0.562,0.282
			c-0.094,0-0.187,0.093-0.375,0.093c-0.375,0-0.653-0.187-0.936-0.469c-0.279-0.279-0.375-0.654-0.375-1.123
			c0-0.468,0.096-0.842,0.375-1.122c0.282-0.374,0.561-0.47,1.031-0.47C26.75,51.978,26.939,51.978,27.126,52.073L27.126,52.073z
			 M27.313,53.287c0-0.186,0-0.372-0.095-0.56c-0.187-0.188-0.375-0.374-0.654-0.374c-0.282,0-0.47,0.094-0.657,0.28
			c-0.092,0.188-0.187,0.374-0.187,0.653H27.313z"/>
		<path fill="#030303" d="M31.618,52.164c0.189,0.189,0.374,0.47,0.374,0.844c-0.466,0-0.466,0-0.466,0
			c0-0.187-0.095-0.28-0.187-0.469c-0.095-0.092-0.282-0.186-0.562-0.186c-0.282,0-0.561,0.186-0.656,0.468
			c-0.094,0.187-0.187,0.466-0.187,0.748c0,0.375,0.093,0.562,0.282,0.749c0.092,0.282,0.279,0.374,0.561,0.374
			c0.188,0,0.375-0.092,0.467-0.188c0.187-0.187,0.187-0.374,0.282-0.561c0.466,0,0.466,0,0.466,0c0,0.374-0.185,0.656-0.374,0.842
			c-0.279,0.188-0.562,0.282-0.936,0.282s-0.655-0.094-0.936-0.376c-0.187-0.279-0.28-0.654-0.28-1.123
			c0-0.468,0.093-0.936,0.375-1.216c0.279-0.28,0.562-0.376,0.936-0.376C31.151,51.978,31.431,51.978,31.618,52.164L31.618,52.164z"
			/>
		<path fill="#030303" d="M33.771,51.23c0.467,0,0.467,0,0.467,0c0,0.747,0,0.747,0,0.747c0.468,0,0.468,0,0.468,0
			c0,0.47,0,0.47,0,0.47c-0.468,0-0.468,0-0.468,0c0,1.966,0,1.966,0,1.966c0,0.092,0.094,0.188,0.094,0.188
			c0.093,0,0.093,0,0.188,0c0.095,0,0.095,0,0.095,0c0.092,0,0.092,0,0.092,0c0,0.374,0,0.374,0,0.374
			c0,0.094-0.092,0.094-0.187,0.094c0,0-0.094,0-0.188,0c-0.187,0-0.374-0.094-0.468-0.188c-0.093-0.094-0.093-0.279-0.093-0.467
			c0-1.966,0-1.966,0-1.966c-0.468,0-0.468,0-0.468,0c0-0.47,0-0.47,0-0.47c0.468,0,0.468,0,0.468,0V51.23z"/>
		<path fill="#030303" d="M36.391,50.95h0.47v0.561h-0.47V50.95L36.391,50.95z M36.391,52.073h0.47v2.901h-0.47V52.073
			L36.391,52.073z"/>
		<path fill="#030303" d="M40.977,52.354c0.283,0.186,0.375,0.562,0.375,1.124c0,0.467-0.092,0.841-0.375,1.123
			c-0.187,0.374-0.561,0.561-1.029,0.561c-0.467,0-0.747-0.187-1.029-0.469c-0.187-0.279-0.281-0.654-0.281-1.123
			c0-0.468,0.094-0.936,0.375-1.216c0.187-0.28,0.562-0.376,1.028-0.376C40.416,51.978,40.698,52.073,40.977,52.354L40.977,52.354z
			 M40.698,54.318c0.092-0.28,0.187-0.563,0.187-0.841c0-0.282-0.095-0.563-0.187-0.656c-0.095-0.282-0.374-0.468-0.75-0.468
			c-0.28,0-0.467,0.094-0.655,0.374c-0.092,0.188-0.187,0.468-0.187,0.842c0,0.28,0.095,0.562,0.187,0.844
			c0.188,0.188,0.375,0.279,0.655,0.279C40.324,54.692,40.511,54.601,40.698,54.318L40.698,54.318z"/>
		<path fill="#030303" d="M43.131,51.978c0.47,0,0.47,0,0.47,0c0,0.47,0,0.47,0,0.47c0.186-0.188,0.279-0.283,0.466-0.374
			c0.187-0.096,0.283-0.096,0.562-0.096c0.374,0,0.655,0.096,0.844,0.376c0.092,0.186,0.092,0.468,0.092,0.748
			c0,1.873,0,1.873,0,1.873c-0.466,0-0.466,0-0.466,0c0-1.873,0-1.873,0-1.873c0-0.187-0.095-0.28-0.095-0.374
			c-0.093-0.188-0.279-0.28-0.562-0.28c-0.091,0-0.187,0-0.279,0c-0.095,0-0.187,0.092-0.375,0.28c0,0.094-0.094,0.188-0.094,0.28
			c-0.092,0.094-0.092,0.279-0.092,0.47c0,1.497,0,1.497,0,1.497c-0.47,0-0.47,0-0.47,0V51.978z"/>
		<path fill="#030303" d="M50.432,51.137c0.094-0.187,0.374-0.282,0.655-0.282h0.093c0.094,0,0.094,0,0.094,0c0,0.47,0,0.47,0,0.47
			h-0.094c0,0,0,0-0.093,0c-0.094,0-0.189,0-0.189,0.092c-0.092,0.095-0.092,0.282-0.092,0.657c0.468,0,0.468,0,0.468,0
			c0,0.374,0,0.374,0,0.374c-0.468,0-0.468,0-0.468,0c0,2.527,0,2.527,0,2.527c-0.469,0-0.469,0-0.469,0c0-2.527,0-2.527,0-2.527
			c-0.466,0-0.466,0-0.466,0c0-0.374,0-0.374,0-0.374c0.466,0,0.466,0,0.466,0c0-0.47,0-0.47,0-0.47
			C50.337,51.324,50.337,51.23,50.432,51.137L50.432,51.137z"/>
		<path fill="#030303" d="M55.11,52.354c0.282,0.186,0.376,0.562,0.376,1.124c0,0.467-0.094,0.841-0.376,1.123
			c-0.187,0.374-0.561,0.561-1.028,0.561c-0.469,0-0.75-0.187-1.031-0.469c-0.187-0.279-0.375-0.654-0.375-1.123
			c0-0.468,0.188-0.936,0.375-1.216c0.281-0.28,0.657-0.376,1.031-0.376C54.457,51.978,54.831,52.073,55.11,52.354L55.11,52.354z
			 M54.736,54.318c0.187-0.28,0.187-0.563,0.187-0.841c0-0.282,0-0.563-0.092-0.656c-0.187-0.282-0.374-0.468-0.749-0.468
			c-0.28,0-0.469,0.094-0.657,0.374c-0.093,0.188-0.187,0.468-0.187,0.842c0,0.28,0.094,0.562,0.187,0.844
			c0.188,0.188,0.376,0.279,0.657,0.279C54.457,54.692,54.644,54.601,54.736,54.318L54.736,54.318z"/>
		<path fill="#030303" d="M57.264,51.978c0.469,0,0.469,0,0.469,0c0,0.562,0,0.562,0,0.562c0-0.092,0.187-0.186,0.279-0.375
			c0.187-0.187,0.374-0.187,0.561-0.187l0,0c0.095,0,0.095,0,0.188,0c0,0.562,0,0.562,0,0.562c-0.092-0.092-0.092-0.092-0.092-0.092
			c-0.095,0-0.095,0-0.095,0c-0.279,0-0.466,0.092-0.561,0.28c-0.187,0.188-0.279,0.374-0.279,0.56c0,1.688,0,1.688,0,1.688
			c-0.469,0-0.469,0-0.469,0V51.978z"/>
		<path fill="#030303" d="M64.939,51.978c0.562,0,0.562,0,0.562,0c-0.094,0.187-0.281,0.656-0.562,1.31
			c-0.094,0.563-0.281,0.939-0.374,1.313c-0.375,0.749-0.562,1.215-0.657,1.402c-0.092,0.188-0.279,0.188-0.654,0.188H63.16
			c-0.092,0-0.092,0-0.187,0c0-0.468,0-0.468,0-0.468c0.095,0,0.187,0.092,0.187,0.092c0.095,0,0.095,0,0.095,0
			c0.092,0,0.188,0,0.281-0.092c0,0,0,0,0.094-0.094c0,0,0-0.094,0.091-0.189c0-0.187,0.096-0.279,0.096-0.372
			c-1.123-3.091-1.123-3.091-1.123-3.091c0.561,0,0.561,0,0.561,0c0.841,2.436,0.841,2.436,0.841,2.436L64.939,51.978z"/>
		<path fill="#030303" d="M69.245,52.354c0.186,0.186,0.375,0.562,0.375,1.124c0,0.467-0.093,0.841-0.375,1.123
			c-0.187,0.374-0.561,0.561-1.124,0.561c-0.375,0-0.653-0.187-0.936-0.469c-0.279-0.279-0.375-0.654-0.375-1.123
			c0-0.468,0.187-0.936,0.375-1.216c0.282-0.28,0.655-0.376,1.031-0.376C68.59,51.978,68.964,52.073,69.245,52.354L69.245,52.354z
			 M68.869,54.318c0.188-0.28,0.188-0.563,0.188-0.841c0-0.282,0-0.563-0.093-0.656c-0.187-0.282-0.374-0.468-0.749-0.468
			c-0.282,0-0.561,0.094-0.657,0.374c-0.187,0.188-0.187,0.468-0.187,0.842c0,0.28,0,0.562,0.187,0.844
			c0.096,0.188,0.375,0.279,0.657,0.279C68.495,54.692,68.777,54.601,68.869,54.318L68.869,54.318z"/>
		<path fill="#030303" d="M71.867,51.978c0,2.061,0,2.061,0,2.061c0,0.093,0,0.28,0.091,0.375c0.096,0.188,0.188,0.279,0.47,0.279
			c0.375,0,0.562-0.188,0.653-0.466c0.095-0.188,0.095-0.471,0.095-0.749c0-1.5,0-1.5,0-1.5c0.562,0,0.562,0,0.562,0
			c0,2.997,0,2.997,0,2.997c-0.47,0-0.47,0-0.47,0c0-0.374,0-0.374,0-0.374c-0.092,0.092-0.187,0.186-0.279,0.279
			c-0.187,0.095-0.375,0.188-0.657,0.188c-0.466,0-0.749-0.094-0.84-0.376c-0.095-0.188-0.187-0.374-0.187-0.654
			c0-2.061,0-2.061,0-2.061H71.867z"/>
		<path fill="#030303" d="M75.704,51.978c0.466,0,0.466,0,0.466,0c0,0.562,0,0.562,0,0.562c0.096-0.092,0.189-0.186,0.283-0.375
			c0.187-0.187,0.374-0.187,0.562-0.187l0,0c0.091,0,0.091,0,0.187,0c0,0.562,0,0.562,0,0.562c-0.096-0.092-0.096-0.092-0.096-0.092
			c-0.091,0-0.091,0-0.091,0c-0.281,0-0.47,0.092-0.562,0.28c-0.187,0.188-0.283,0.374-0.283,0.56c0,1.688,0,1.688,0,1.688
			c-0.466,0-0.466,0-0.466,0V51.978z"/>
		<path fill="#030303" d="M81.787,54.038c0,0.188,0,0.375,0.092,0.375c0.187,0.188,0.376,0.279,0.656,0.279
			c0.188,0,0.375,0,0.562-0.092c0.092-0.096,0.187-0.188,0.187-0.374c0-0.188-0.095-0.282-0.187-0.282
			c-0.096-0.095-0.188-0.095-0.375-0.188c-0.468-0.095-0.468-0.095-0.468-0.095c-0.281-0.092-0.468-0.092-0.56-0.184
			c-0.19-0.19-0.283-0.376-0.283-0.563c0-0.281,0.092-0.562,0.283-0.751c0.184-0.091,0.466-0.187,0.84-0.187
			c0.466,0,0.749,0.096,0.936,0.376c0.187,0.186,0.187,0.374,0.187,0.562c-0.469,0-0.469,0-0.469,0c0-0.188,0-0.281-0.092-0.376
			c-0.096-0.092-0.375-0.186-0.655-0.186c-0.187,0-0.281,0.094-0.376,0.094c-0.092,0.092-0.187,0.187-0.187,0.28
			c0,0.188,0.095,0.28,0.187,0.374c0.095,0,0.189,0.094,0.376,0.094c0.281,0.092,0.281,0.092,0.281,0.092
			c0.375,0.095,0.657,0.19,0.749,0.282c0.187,0.092,0.281,0.28,0.281,0.562c0,0.282-0.094,0.47-0.281,0.749
			c-0.188,0.188-0.47,0.281-0.936,0.281c-0.469,0-0.749-0.093-0.936-0.375c-0.187-0.186-0.282-0.373-0.282-0.748H81.787z"/>
		<path fill="#030303" d="M85.998,51.978c0,2.061,0,2.061,0,2.061c0,0.093,0,0.28,0.095,0.375c0,0.188,0.188,0.279,0.468,0.279
			s0.563-0.188,0.656-0.466c0.095-0.188,0.095-0.471,0.095-0.749c0-1.5,0-1.5,0-1.5c0.56,0,0.56,0,0.56,0c0,2.997,0,2.997,0,2.997
			c-0.468,0-0.468,0-0.468,0c0-0.374,0-0.374,0-0.374c-0.092,0.092-0.187,0.186-0.279,0.279c-0.19,0.095-0.377,0.188-0.66,0.188
			c-0.466,0-0.746-0.094-0.84-0.376c-0.092-0.188-0.186-0.374-0.186-0.654c0-2.061,0-2.061,0-2.061H85.998z"/>
		<path fill="#030303" d="M91.802,52.164c0.188,0.189,0.28,0.47,0.374,0.844c-0.466,0-0.466,0-0.466,0
			c-0.095-0.187-0.095-0.28-0.283-0.469c-0.093-0.092-0.281-0.186-0.468-0.186c-0.28,0-0.563,0.186-0.654,0.468
			c-0.095,0.187-0.188,0.466-0.188,0.748c0,0.375,0.093,0.562,0.188,0.749c0.188,0.282,0.374,0.374,0.654,0.374
			c0.187,0,0.375-0.092,0.468-0.188c0.096-0.187,0.188-0.374,0.283-0.561c0.466,0,0.466,0,0.466,0
			c-0.094,0.374-0.187,0.656-0.466,0.842c-0.188,0.188-0.471,0.282-0.843,0.282c-0.374,0-0.657-0.094-0.938-0.376
			c-0.189-0.279-0.372-0.654-0.372-1.123c0-0.468,0.183-0.936,0.468-1.216c0.186-0.28,0.563-0.376,0.935-0.376
			C91.334,51.978,91.522,51.978,91.802,52.164L91.802,52.164z"/>
		<path fill="#030303" d="M95.825,52.164c0.189,0.189,0.281,0.47,0.376,0.844c-0.563,0-0.563,0-0.563,0
			c0-0.187-0.092-0.28-0.186-0.469c-0.095-0.092-0.282-0.186-0.469-0.186c-0.374,0-0.562,0.186-0.747,0.468
			c-0.093,0.187-0.093,0.466-0.093,0.748c0,0.375,0.093,0.562,0.187,0.749c0.092,0.282,0.279,0.374,0.562,0.374
			c0.278,0,0.375-0.092,0.561-0.188c0.094-0.187,0.186-0.374,0.186-0.561c0.563,0,0.563,0,0.563,0
			c-0.095,0.374-0.187,0.656-0.469,0.842c-0.187,0.188-0.466,0.282-0.841,0.282c-0.374,0-0.748-0.094-0.939-0.376
			c-0.279-0.279-0.371-0.654-0.371-1.123c0-0.468,0.188-0.936,0.371-1.216c0.284-0.28,0.657-0.376,1.031-0.376
			C95.267,51.978,95.546,51.978,95.825,52.164L95.825,52.164z"/>
		<path fill="#030303" d="M99.665,52.073c0.186,0.091,0.372,0.28,0.467,0.374c0.094,0.187,0.186,0.374,0.186,0.561
			c0,0.188,0,0.374,0,0.653c-2.149,0-2.149,0-2.149,0c0,0.283,0.092,0.565,0.187,0.752c0.188,0.188,0.374,0.279,0.654,0.279
			c0.282,0,0.469-0.092,0.656-0.279c0.093-0.095,0.093-0.187,0.186-0.375c0.467,0,0.467,0,0.467,0c0,0.188-0.092,0.28-0.092,0.375
			c-0.094,0.188-0.188,0.279-0.28,0.373c-0.188,0.094-0.376,0.188-0.563,0.282c-0.092,0-0.281,0.093-0.374,0.093
			c-0.375,0-0.749-0.187-0.937-0.469c-0.278-0.279-0.467-0.654-0.467-1.123c0-0.468,0.188-0.842,0.467-1.122
			c0.188-0.374,0.562-0.47,0.937-0.47C99.291,51.978,99.478,51.978,99.665,52.073L99.665,52.073z M99.851,53.287
			c0-0.186-0.093-0.372-0.186-0.56c-0.096-0.188-0.374-0.374-0.656-0.374c-0.188,0-0.375,0.094-0.563,0.28
			c-0.187,0.188-0.278,0.374-0.278,0.653H99.851z"/>
		<path fill="#030303" d="M102.475,54.038c0,0.188,0,0.375,0.093,0.375c0.092,0.188,0.374,0.279,0.654,0.279
			c0.186,0,0.372,0,0.56-0.092c0.095-0.096,0.187-0.188,0.187-0.374c0-0.188-0.092-0.282-0.187-0.282
			c-0.092-0.095-0.188-0.095-0.468-0.188c-0.372-0.095-0.372-0.095-0.372-0.095c-0.282-0.092-0.467-0.092-0.563-0.184
			c-0.185-0.19-0.373-0.376-0.373-0.563c0-0.281,0.092-0.562,0.373-0.751c0.189-0.091,0.468-0.187,0.844-0.187
			c0.372,0,0.746,0.096,0.937,0.376c0.092,0.186,0.187,0.374,0.187,0.562c-0.469,0-0.469,0-0.469,0c0-0.188-0.095-0.281-0.095-0.376
			c-0.188-0.092-0.374-0.186-0.654-0.186c-0.186,0-0.373,0.094-0.468,0.094c-0.092,0.092-0.092,0.187-0.092,0.28
			c0,0.188,0.092,0.28,0.187,0.374c0.092,0,0.188,0.094,0.373,0.094c0.28,0.092,0.28,0.092,0.28,0.092
			c0.374,0.095,0.657,0.19,0.751,0.282c0.187,0.092,0.28,0.28,0.28,0.562c0,0.282-0.094,0.47-0.28,0.749
			c-0.19,0.188-0.564,0.281-0.937,0.281c-0.468,0-0.747-0.093-0.938-0.375c-0.188-0.186-0.279-0.373-0.374-0.748H102.475z"/>
		<path fill="#030303" d="M106.404,54.038c0.092,0.188,0.092,0.375,0.186,0.375c0.095,0.188,0.376,0.279,0.654,0.279
			c0.19,0,0.376,0,0.469-0.092c0.188-0.096,0.281-0.188,0.281-0.374c0-0.188-0.093-0.282-0.186-0.282
			c-0.096-0.095-0.282-0.095-0.468-0.188c-0.375-0.095-0.375-0.095-0.375-0.095c-0.281-0.092-0.47-0.092-0.562-0.184
			c-0.282-0.19-0.378-0.376-0.378-0.563c0-0.281,0.096-0.562,0.283-0.751c0.28-0.091,0.561-0.187,0.843-0.187
			c0.468,0,0.842,0.096,1.028,0.376c0.095,0.186,0.188,0.374,0.188,0.562c-0.467,0-0.467,0-0.467,0c0-0.188-0.093-0.281-0.188-0.376
			c-0.093-0.092-0.278-0.186-0.561-0.186c-0.187,0-0.375,0.094-0.468,0.094c-0.095,0.092-0.095,0.187-0.095,0.28
			c0,0.188,0,0.28,0.188,0.374c0.093,0,0.188,0.094,0.28,0.094c0.377,0.092,0.377,0.092,0.377,0.092
			c0.374,0.095,0.56,0.19,0.746,0.282c0.188,0.092,0.28,0.28,0.28,0.562c0,0.282-0.093,0.47-0.28,0.749
			c-0.279,0.188-0.561,0.281-0.937,0.281c-0.467,0-0.84-0.093-1.026-0.375c-0.191-0.186-0.282-0.373-0.282-0.748H106.404z"/>
	</g>
</g>
</svg>
